<svg xmlns="http://www.w3.org/2000/svg" viewBox="0 0 64 64" role="img" aria-label="Physiology Lab">
  <!-- The house mark: two beats of an arterial pressure waveform, dicrotic notch and all. The same
       drawing as the phone app's icon (physiology-native/assets/icon.png), redrawn as vector. -->
  <rect width="64" height="64" rx="12" fill="#0f172a"/>
  <path d="M11.5 51.5 C12 36 12.5 20 13.7 13 C15.5 12 18.5 22 20.3 30.5 C21 34 21.5 34 22 30.5 C22.6 27 23.5 28 24.2 33.5 C26.5 41 30 47.5 37 50 L37.2 50.8 C37.8 36 38.3 20 39.3 13 C41 12 44 22 45.9 30.5 C46.6 34 47.1 34 47.6 30.5 C48.2 27 49.1 28 49.8 33.5 C50.8 36.8 51.6 39.2 52.4 42"
        fill="none" stroke="#60a5fa" stroke-width="3.2" stroke-linecap="round" stroke-linejoin="round"/>
</svg>
